<svg xmlns="http://www.w3.org/2000/svg" viewBox="0 0 120 120" fill="none">
  <rect width="120" height="120" rx="24" fill="#003D6B"/>
  <rect x="3" y="3" width="114" height="114" rx="21" stroke="#fff" stroke-width="2" stroke-opacity="0.15"/>
  <!-- Stylized molecule / connected hexagons -->
  <!-- Center hexagon -->
  <polygon points="60,32 72,39 72,53 60,60 48,53 48,39" fill="#0077B6" stroke="#fff" stroke-width="2.5" stroke-opacity="0.3"/>
  <polygon points="60,35 70,41 70,51 60,57 50,51 50,41" fill="#48CAE4" fill-opacity="0.3"/>
  <!-- Left hexagon -->
  <polygon points="42,53 54,60 54,74 42,81 30,74 30,60" fill="#0077B6" stroke="#fff" stroke-width="2.5" stroke-opacity="0.3"/>
  <polygon points="42,56 52,62 52,72 42,78 32,72 32,62" fill="#48CAE4" fill-opacity="0.3"/>
  <!-- Right hexagon -->
  <polygon points="78,53 90,60 90,74 78,81 66,74 66,60" fill="#0077B6" stroke="#fff" stroke-width="2.5" stroke-opacity="0.3"/>
  <polygon points="78,56 88,62 88,72 78,78 68,72 68,62" fill="#48CAE4" fill-opacity="0.3"/>
  <!-- Node dots at vertices -->
  <circle cx="60" cy="32" r="3" fill="#fff" fill-opacity="0.9"/>
  <circle cx="42" cy="81" r="3" fill="#fff" fill-opacity="0.9"/>
  <circle cx="78" cy="81" r="3" fill="#fff" fill-opacity="0.9"/>
  <!-- Text -->
  <text x="60" y="106" text-anchor="middle" fill="#fff" font-family="Arial,sans-serif" font-size="11" font-weight="700" letter-spacing="1">SABIC</text>
</svg>
