<svg xmlns="http://www.w3.org/2000/svg" viewBox="0 0 120 120" fill="none">
  <rect width="120" height="120" rx="24" fill="#4F008C"/>
  <rect x="3" y="3" width="114" height="114" rx="21" stroke="#fff" stroke-width="2" stroke-opacity="0.15"/>
  <!-- Stylized signal waves -->
  <!-- Signal origin point -->
  <circle cx="40" cy="58" r="6" fill="#9B59B6" stroke="#fff" stroke-width="2.5" stroke-opacity="0.3"/>
  <circle cx="40" cy="58" r="3" fill="#fff" fill-opacity="0.9"/>
  <!-- Wave arcs -->
  <path d="M52 38c14 0 25 9 25 20s-11 20-25 20" fill="none" stroke="#fff" stroke-width="3" stroke-opacity="0.4" stroke-linecap="round"/>
  <path d="M52 44c10 0 18 6.5 18 14s-8 14-18 14" fill="none" stroke="#fff" stroke-width="3" stroke-opacity="0.6" stroke-linecap="round"/>
  <path d="M52 50c6 0 11 3.5 11 8s-5 8-11 8" fill="none" stroke="#fff" stroke-width="3" stroke-opacity="0.85" stroke-linecap="round"/>
  <!-- Small accent dots -->
  <circle cx="80" cy="48" r="2" fill="#D2B4DE" fill-opacity="0.6"/>
  <circle cx="84" cy="58" r="2" fill="#D2B4DE" fill-opacity="0.6"/>
  <circle cx="80" cy="68" r="2" fill="#D2B4DE" fill-opacity="0.6"/>
  <!-- Text -->
  <text x="60" y="106" text-anchor="middle" fill="#fff" font-family="Arial,sans-serif" font-size="11" font-weight="700" letter-spacing="1">STC</text>
</svg>
